# xmcd CD database file
#
# Track frame offsets:
#	150
#	20587
#	37473
#	60474
#	86006
#	97350
#	121370
#	142101
#	159348
#	180494
#	205561
#	241581
#
# Disc length: 3499 seconds
#
# Revision: 0
# Processed by: cddbd v1.5.2PL0 Copyright (c) Steve Scherf et al.
# Submitted via: CDex 1.51
#
DISCID=a30da90c
DTITLE=Martin Pizzarelli - Triple Play
DYEAR=2004
DGENRE=Jazz
TTITLE0=Bye Bye Blackbird
TTITLE1=Tour's End
TTITLE2=As Long As I Live
TTITLE3=Polka Dots And Moonbeams
TTITLE4=Triple Play
TTITLE5=Moonglow
TTITLE6=Sister Sadie
TTITLE7=Parkside
TTITLE8=So That's Czak
TTITLE9=Gee Baby, Ain't I Good To You
TTITLE10=Undecided
TTITLE11=Strayhorn
EXTD=YEAR: 2004
EXTT0=
EXTT1=
EXTT2=
EXTT3=
EXTT4=
EXTT5=
EXTT6=
EXTT7=
EXTT8=
EXTT9=
EXTT10=
EXTT11=
PLAYORDER=
